v -0.375000 1.125000 0.250000
v -0.375000 1.125000 0.375000
v -0.375000 1.000000 0.250000
v -0.375000 1.000000 0.375000
v 0.375000 1.125000 0.250000
v 0.375000 1.125000 0.375000
v 0.375000 1.000000 0.250000
v 0.375000 1.000000 0.375000
v 0.250000 1.125000 0.250000
v 0.250000 1.000000 0.250000
v 0.250000 1.000000 0.375000
v 0.250000 1.125000 0.375000
v -0.250000 1.125000 0.250000
v -0.250000 1.000000 0.250000
v -0.250000 1.000000 0.375000
v -0.250000 1.125000 0.375000
v 0.250000 1.125000 0.250000
v 0.375000 1.125000 0.250000
v 0.250000 1.000000 0.250000
v 0.375000 1.000000 0.250000
v 0.250000 1.125000 -0.250000
v 0.375000 1.125000 -0.250000
v 0.250000 1.000000 -0.250000
v 0.375000 1.000000 -0.250000
v -0.375000 1.125000 0.250000
v -0.250000 1.125000 0.250000
v -0.375000 1.000000 0.250000
v -0.250000 1.000000 0.250000
v -0.375000 1.125000 -0.250000
v -0.250000 1.125000 -0.250000
v -0.375000 1.000000 -0.250000
v -0.250000 1.000000 -0.250000
v 0.375000 1.125000 -0.250000
v 0.375000 1.125000 -0.375000
v 0.375000 1.000000 -0.250000
v 0.375000 1.000000 -0.375000
v -0.375000 1.125000 -0.250000
v -0.375000 1.125000 -0.375000
v -0.375000 1.000000 -0.250000
v -0.375000 1.000000 -0.375000
v -0.250000 1.125000 -0.250000
v -0.250000 1.000000 -0.250000
v -0.250000 1.000000 -0.375000
v -0.250000 1.125000 -0.375000
v 0.250000 1.125000 -0.250000
v 0.250000 1.000000 -0.250000
v 0.250000 1.000000 -0.375000
v 0.250000 1.125000 -0.375000
v -0.250000 0.500000 -0.250000
v -0.250000 0.500000 -0.375000
v -0.375000 0.500000 -0.250000
v -0.375000 0.500000 -0.375000
v -0.250000 1.000000 -0.250000
v -0.250000 1.000000 -0.375000
v -0.375000 1.000000 -0.250000
v -0.375000 1.000000 -0.375000
v -0.250000 0.500000 0.375000
v -0.250000 0.500000 0.250000
v -0.375000 0.500000 0.375000
v -0.375000 0.500000 0.250000
v -0.250000 1.000000 0.375000
v -0.250000 1.000000 0.250000
v -0.375000 1.000000 0.375000
v -0.375000 1.000000 0.250000
v 0.375000 0.500000 -0.250000
v 0.375000 0.500000 -0.375000
v 0.250000 0.500000 -0.250000
v 0.250000 0.500000 -0.375000
v 0.375000 1.000000 -0.250000
v 0.375000 1.000000 -0.375000
v 0.250000 1.000000 -0.250000
v 0.250000 1.000000 -0.375000
v 0.375000 0.500000 0.375000
v 0.375000 0.500000 0.250000
v 0.250000 0.500000 0.375000
v 0.250000 0.500000 0.250000
v 0.375000 1.000000 0.375000
v 0.375000 1.000000 0.250000
v 0.250000 1.000000 0.375000
v 0.250000 1.000000 0.250000
v -0.375000 0.375000 -0.250000
v -0.375000 0.375000 -0.375000
v -0.375000 0.500000 -0.250000
v -0.375000 0.500000 -0.375000
v 0.375000 0.375000 -0.250000
v 0.375000 0.375000 -0.375000
v 0.375000 0.500000 -0.250000
v 0.375000 0.500000 -0.375000
v 0.250000 0.375000 -0.250000
v 0.250000 0.500000 -0.250000
v 0.250000 0.500000 -0.375000
v 0.250000 0.375000 -0.375000
v -0.250000 0.375000 -0.250000
v -0.250000 0.500000 -0.250000
v -0.250000 0.500000 -0.375000
v -0.250000 0.375000 -0.375000
v 0.250000 0.375000 -0.250000
v 0.375000 0.375000 -0.250000
v 0.250000 0.500000 -0.250000
v 0.375000 0.500000 -0.250000
v 0.250000 0.375000 0.250000
v 0.375000 0.375000 0.250000
v 0.250000 0.500000 0.250000
v 0.375000 0.500000 0.250000
v -0.375000 0.375000 -0.250000
v -0.250000 0.375000 -0.250000
v -0.375000 0.500000 -0.250000
v -0.250000 0.500000 -0.250000
v -0.375000 0.375000 0.250000
v -0.250000 0.375000 0.250000
v -0.375000 0.500000 0.250000
v -0.250000 0.500000 0.250000
v 0.375000 0.375000 0.250000
v 0.375000 0.375000 0.375000
v 0.375000 0.500000 0.250000
v 0.375000 0.500000 0.375000
v -0.375000 0.375000 0.250000
v -0.375000 0.375000 0.375000
v -0.375000 0.500000 0.250000
v -0.375000 0.500000 0.375000
v -0.250000 0.375000 0.250000
v -0.250000 0.500000 0.250000
v -0.250000 0.500000 0.375000
v -0.250000 0.375000 0.375000
v 0.250000 0.375000 0.250000
v 0.250000 0.500000 0.250000
v 0.250000 0.500000 0.375000
v 0.250000 0.375000 0.375000
vt 0.156250 0.953125
vt 0.187500 0.953125
vt 0.187500 0.984375
vt 0.156250 0.984375
vt 0.031250 0.984375
vt 0.000000 0.984375
vt 0.000000 0.953125
vt 0.031250 0.953125
vt 0.031385 0.953261
vt 0.031114 0.984510
vt 0.000000 0.984239
vt 0.000136 0.952990
vt 0.186079 0.951823
vt 0.188802 0.982954
vt 0.157671 0.985677
vt 0.154948 0.954546
vt 0.031250 0.906250
vt 0.156250 0.906250
vt 0.156250 0.937500
vt 0.031250 0.937500
vt 0.156250 0.937500
vt 0.031250 0.937500
vt 0.031250 0.906250
vt 0.156250 0.906250
vt 0.156250 0.890625
vt 0.031250 0.890625
vt 0.031250 0.859375
vt 0.156250 0.859375
vt 0.156250 0.937500
vt 0.031250 0.937500
vt 0.031250 0.906250
vt 0.156250 0.906250
vt 0.031385 0.953261
vt 0.031114 0.984510
vt 0.000000 0.984239
vt 0.000136 0.952990
vt 0.187500 0.953125
vt 0.187500 0.984375
vt 0.156250 0.984375
vt 0.156250 0.953125
vt 0.031250 0.937500
vt 0.031250 0.906250
vt 0.156250 0.906250
vt 0.156250 0.937500
vt 0.031185 0.937500
vt 0.031315 0.906251
vt 0.156185 0.906250
vt 0.156185 0.937500
vt 0.156250 0.906250
vt 0.156250 0.937500
vt 0.031250 0.937500
vt 0.031250 0.906250
vt 0.031250 0.937500
vt 0.031250 0.906250
vt 0.156250 0.906250
vt 0.156250 0.937500
vt 0.156250 0.906250
vt 0.156250 0.937500
vt 0.031250 0.937500
vt 0.031250 0.906250
vt 0.156116 0.905724
vt 0.156250 0.936973
vt 0.031384 0.938026
vt 0.031121 0.906777
vt 0.031250 0.937500
vt 0.031250 0.906250
vt 0.156250 0.906250
vt 0.156250 0.937500
vt 0.156250 0.906250
vt 0.156250 0.937500
vt 0.031250 0.937500
vt 0.031250 0.906250
vt 0.156250 0.953125
vt 0.187500 0.953125
vt 0.187500 0.984375
vt 0.156250 0.984375
vt 0.031283 0.984409
vt 0.000035 0.984274
vt 0.000033 0.953159
vt 0.031283 0.953159
vt 0.031114 0.952990
vt 0.031385 0.984239
vt 0.000136 0.984510
vt 0.000000 0.953261
vt 0.187500 0.953125
vt 0.187500 0.984375
vt 0.156250 0.984375
vt 0.156250 0.953125
vt 0.031250 0.906250
vt 0.156250 0.906250
vt 0.156250 0.937500
vt 0.031250 0.937500
vt 0.156250 0.937500
vt 0.031250 0.937500
vt 0.031250 0.906250
vt 0.156250 0.906250
vt 0.031250 0.906250
vt 0.156250 0.906250
vt 0.156250 0.937500
vt 0.031250 0.937500
vt 0.156250 0.937500
vt 0.031250 0.937500
vt 0.031250 0.906250
vt 0.156250 0.906250
vt 0.031114 0.952990
vt 0.031385 0.984239
vt 0.000136 0.984510
vt 0.000000 0.953261
vt 0.187500 0.953125
vt 0.187500 0.984375
vt 0.156250 0.984375
vt 0.156250 0.953125
vt 0.031250 0.843750
vt 0.031250 0.812500
vt 0.156250 0.812500
vt 0.156250 0.843750
vt 0.031250 0.843750
vt 0.031250 0.812500
vt 0.156250 0.812500
vt 0.156250 0.843750
vt 0.031250 0.843750
vt 0.031250 0.812500
vt 0.156250 0.812500
vt 0.156250 0.843750
vt 0.156250 0.812500
vt 0.156250 0.843750
vt 0.031250 0.843750
vt 0.031250 0.812500
vt 0.031250 0.843750
vt 0.031250 0.812500
vt 0.156250 0.812500
vt 0.156250 0.843750
vt 0.031250 0.843750
vt 0.031250 0.812500
vt 0.156250 0.812500
vt 0.156250 0.843750
vt 0.031250 0.843750
vt 0.031250 0.812500
vt 0.156250 0.812500
vt 0.156250 0.843750
vt 0.156250 0.812500
vt 0.156250 0.843750
vt 0.031250 0.843750
vt 0.031250 0.812500
vt 0.031250 0.843750
vt 0.031250 0.812500
vt 0.156250 0.812500
vt 0.156250 0.843750
vt 0.031250 0.843750
vt 0.031250 0.812500
vt 0.156250 0.812500
vt 0.156250 0.843750
vt 0.031250 0.843750
vt 0.031250 0.812500
vt 0.156250 0.812500
vt 0.156250 0.843750
vt 0.156250 0.812500
vt 0.156250 0.843750
vt 0.031250 0.843750
vt 0.031250 0.812500
vt 0.031250 0.843750
vt 0.031250 0.812500
vt 0.156250 0.812500
vt 0.156250 0.843750
vt 0.031250 0.843750
vt 0.031250 0.812500
vt 0.156250 0.812500
vt 0.156250 0.843750
vt 0.031250 0.843750
vt 0.031250 0.812500
vt 0.156250 0.812500
vt 0.156250 0.843750
vt 0.156250 0.812500
vt 0.156250 0.843750
vt 0.031250 0.843750
vt 0.031250 0.812500
vt 0.000000 0.984375
vt 0.000000 0.953125
vt 0.031250 0.953125
vt 0.031250 0.984375
vt 0.156250 0.984375
vt 0.156250 0.953125
vt 0.187500 0.953125
vt 0.187500 0.984375
vt 0.187500 0.984375
vt 0.156250 0.984375
vt 0.156250 0.953125
vt 0.187500 0.953125
vt 0.000000 0.953125
vt 0.031250 0.953125
vt 0.031250 0.984375
vt 0.000000 0.984375
vt 0.156250 0.937500
vt 0.031250 0.937500
vt 0.031250 0.906250
vt 0.156250 0.906250
vt 0.031250 0.906250
vt 0.156250 0.906250
vt 0.156250 0.937500
vt 0.031250 0.937500
vt 0.156250 0.937500
vt 0.031250 0.937500
vt 0.031250 0.906250
vt 0.156250 0.906250
vt 0.031250 0.906250
vt 0.156250 0.906250
vt 0.156250 0.937500
vt 0.031250 0.937500
vt 0.187500 0.984375
vt 0.156250 0.984375
vt 0.156250 0.953125
vt 0.187500 0.953125
vt 0.000000 0.953125
vt 0.031250 0.953125
vt 0.031250 0.984375
vt 0.000000 0.984375
vt 0.156249 0.906509
vt 0.156120 0.937759
vt 0.031251 0.937241
vt 0.031251 0.905992
vt 0.156250 0.906250
vt 0.156250 0.937500
vt 0.031250 0.937500
vt 0.031250 0.906250
vt 0.031250 0.937500
vt 0.031250 0.906250
vt 0.156250 0.906250
vt 0.156250 0.937500
vt 0.156250 0.906250
vt 0.156250 0.937500
vt 0.031250 0.937500
vt 0.031250 0.906250
vt 0.031250 0.937500
vt 0.031250 0.906250
vt 0.156250 0.906250
vt 0.156250 0.937500
vt 0.031250 0.937500
vt 0.031250 0.906250
vt 0.156250 0.906250
vt 0.156250 0.937500
vt 0.156250 0.906250
vt 0.156250 0.937500
vt 0.031250 0.937500
vt 0.031250 0.906250
vt 0.031250 0.937500
vt 0.031250 0.906250
vt 0.156250 0.906250
vt 0.156250 0.937500
vt 0.000000 0.984375
vt 0.000000 0.953125
vt 0.031250 0.953125
vt 0.031250 0.984375
vt 0.156250 0.984375
vt 0.156250 0.953125
vt 0.187500 0.953125
vt 0.187500 0.984375
vt 0.187500 0.984375
vt 0.156250 0.984375
vt 0.156250 0.953125
vt 0.187500 0.953125
vt 0.000000 0.953125
vt 0.031250 0.953125
vt 0.031250 0.984375
vt 0.000000 0.984375
vt 0.156250 0.937500
vt 0.031250 0.937500
vt 0.031250 0.906250
vt 0.156250 0.906250
vt 0.031250 0.906250
vt 0.156250 0.906250
vt 0.156250 0.937500
vt 0.031250 0.937500
vt 0.156250 0.937500
vt 0.031250 0.937500
vt 0.031250 0.906250
vt 0.156250 0.906250
vt 0.031250 0.906250
vt 0.156250 0.906250
vt 0.156250 0.937500
vt 0.031250 0.937500
vt 0.187500 0.984375
vt 0.156250 0.984375
vt 0.156250 0.953125
vt 0.187500 0.953125
vt 0.000000 0.953125
vt 0.031250 0.953125
vt 0.031250 0.984375
vt 0.000000 0.984375
vn -1.000000 -0.000000 0.000000
vn 1.000000 0.000000 -0.000000
vn -0.000000 1.000000 -0.000000
vn 0.000000 0.000000 1.000000
vn 0.000000 -0.000000 -1.000000
vn 0.000000 -1.000000 0.000000
vn 0.000000 0.000000 1.000000
vn -0.000000 1.000000 -0.000000
vn 0.000000 0.000000 1.000000
vn -0.000000 1.000000 -0.000000
vn -0.000000 1.000000 -0.000000
vn 0.000000 -1.000000 0.000000
vn -1.000000 0.000000 0.000000
vn 1.000000 -0.000000 -0.000000
vn -0.000000 1.000000 -0.000000
vn 0.000000 -1.000000 0.000000
vn -1.000000 0.000000 0.000000
vn 1.000000 -0.000000 -0.000000
vn 1.000000 -0.000000 0.000000
vn -1.000000 0.000000 -0.000000
vn -0.000000 1.000000 -0.000000
vn -0.000000 0.000000 -1.000000
vn 0.000000 -0.000000 1.000000
vn 0.000000 -1.000000 0.000000
vn -0.000000 0.000000 -1.000000
vn -0.000000 1.000000 -0.000000
vn -0.000000 0.000000 -1.000000
vn -0.000000 1.000000 -0.000000
vn 1.000000 0.000000 -0.000000
vn -1.000000 -0.000000 0.000000
vn 0.000000 0.000000 1.000000
vn -0.000000 -0.000000 -1.000000
vn 1.000000 0.000000 -0.000000
vn -1.000000 -0.000000 0.000000
vn 0.000000 0.000000 1.000000
vn -0.000000 -0.000000 -1.000000
vn 1.000000 0.000000 -0.000000
vn -1.000000 -0.000000 0.000000
vn 0.000000 0.000000 1.000000
vn -0.000000 -0.000000 -1.000000
vn 1.000000 0.000000 0.000000
vn -1.000000 -0.000000 0.000000
vn 0.000000 0.000000 1.000000
vn -0.000000 -0.000000 -1.000000
vn -1.000000 -0.000000 0.000000
vn 1.000000 0.000000 -0.000000
vn 0.000000 -1.000000 0.000000
vn 0.000000 -0.000000 -1.000000
vn 0.000000 0.000000 1.000000
vn -0.000000 1.000000 0.000000
vn 0.000000 -0.000000 -1.000000
vn 0.000000 -1.000000 0.000000
vn 0.000000 -0.000000 -1.000000
vn 0.000000 -1.000000 0.000000
vn 0.000000 -1.000000 -0.000000
vn -0.000000 1.000000 0.000000
vn -1.000000 -0.000000 -0.000000
vn 1.000000 0.000000 0.000000
vn 0.000000 -1.000000 -0.000000
vn -0.000000 1.000000 0.000000
vn -1.000000 -0.000000 -0.000000
vn 1.000000 0.000000 0.000000
vn 1.000000 0.000000 -0.000000
vn -1.000000 -0.000000 0.000000
vn 0.000000 -1.000000 -0.000000
vn 0.000000 0.000000 1.000000
vn 0.000000 -0.000000 -1.000000
vn -0.000000 1.000000 -0.000000
vn 0.000000 0.000000 1.000000
vn -0.000000 -1.000000 0.000000
vn 0.000000 0.000000 1.000000
vn 0.000000 -1.000000 0.000000
o cube
v 0.500000 0.187500 0.500000
v 0.500000 0.187500 -0.500000
v 0.500000 0.000000 0.500000
v 0.500000 0.000000 -0.500000
v -0.500000 0.187500 -0.500000
v -0.500000 0.187500 0.500000
v -0.500000 0.000000 -0.500000
v -0.500000 0.000000 0.500000
vt 0.640625 1.000000
vt 0.890625 1.000000
vt 0.890625 0.953125
vt 0.640625 0.953125
vt 0.640625 0.937500
vt 0.890625 0.937500
vt 0.890625 0.890625
vt 0.640625 0.890625
vt 0.640625 0.875000
vt 0.890625 0.875000
vt 0.890625 0.828125
vt 0.640625 0.828125
vt 0.640625 0.812500
vt 0.890625 0.812500
vt 0.890625 0.765625
vt 0.640625 0.765625
vt 0.250000 0.750000
vt 0.000000 0.750000
vt 0.000000 1.000000
vt 0.250000 1.000000
vt 0.250000 0.734375
vt 0.000000 0.734375
vt 0.000000 0.484375
vt 0.250000 0.484375
vn 0.000000 0.000000 -1.000000
vn 1.000000 0.000000 0.000000
vn 0.000000 0.000000 1.000000
vn -1.000000 0.000000 0.000000
vn 0.000000 1.000000 0.000000
vn 0.000000 -1.000000 0.000000
f 132/292/73 135/291/73 133/290/73 130/289/73
f 131/296/74 132/295/74 130/294/74 129/293/74
f 136/300/75 131/299/75 129/298/75 134/297/75
f 135/304/76 136/303/76 134/302/76 133/301/76
f 134/308/77 129/307/77 130/306/77 133/305/77
f 135/312/78 132/311/78 131/310/78 136/309/78
o cube
v 0.437500 0.375000 0.437500
v 0.437500 0.375000 -0.437500
v 0.437500 0.187500 0.437500
v 0.437500 0.187500 -0.437500
v -0.437500 0.375000 -0.437500
v -0.437500 0.375000 0.437500
v -0.437500 0.187500 -0.437500
v -0.437500 0.187500 0.437500
vt 0.640625 0.750000
vt 0.859375 0.750000
vt 0.859375 0.703125
vt 0.640625 0.703125
vt 0.640625 0.687500
vt 0.859375 0.687500
vt 0.859375 0.640625
vt 0.640625 0.640625
vt 0.640625 0.625000
vt 0.859375 0.625000
vt 0.859375 0.578125
vt 0.640625 0.578125
vt 0.546875 0.343750
vt 0.765625 0.343750
vt 0.765625 0.296875
vt 0.546875 0.296875
vt 0.484375 0.781250
vt 0.265625 0.781250
vt 0.265625 1.000000
vt 0.484375 1.000000
vt 0.484375 0.765625
vt 0.265625 0.765625
vt 0.265625 0.546875
vt 0.484375 0.546875
vn 0.000000 0.000000 -1.000000
vn 1.000000 0.000000 0.000000
vn 0.000000 0.000000 1.000000
vn -1.000000 0.000000 0.000000
vn 0.000000 1.000000 0.000000
vn 0.000000 -1.000000 0.000000
f 140/316/79 143/315/79 141/314/79 138/313/79
f 139/320/80 140/319/80 138/318/80 137/317/80
f 144/324/81 139/323/81 137/322/81 142/321/81
f 143/328/82 144/327/82 142/326/82 141/325/82
f 142/332/83 137/331/83 138/330/83 141/329/83
f 143/336/84 140/335/84 139/334/84 144/333/84
o cube
v 0.250000 1.000000 -0.375000
v 0.250000 1.000000 -0.500000
v 0.250000 0.187500 -0.375000
v 0.250000 0.187500 -0.500000
v -0.250000 1.000000 -0.500000
v -0.250000 1.000000 -0.375000
v -0.250000 0.187500 -0.500000
v -0.250000 0.187500 -0.375000
vt 0.265625 0.531250
vt 0.390625 0.531250
vt 0.390625 0.328125
vt 0.265625 0.328125
vt 0.140625 0.468750
vt 0.171875 0.468750
vt 0.171875 0.265625
vt 0.140625 0.265625
vt 0.406250 0.531250
vt 0.531250 0.531250
vt 0.531250 0.328125
vt 0.406250 0.328125
vt 0.187500 0.468750
vt 0.218750 0.468750
vt 0.218750 0.265625
vt 0.187500 0.265625
vt 0.812500 0.531250
vt 0.687500 0.531250
vt 0.687500 0.562500
vt 0.812500 0.562500
vt 0.812500 0.515625
vt 0.687500 0.515625
vt 0.687500 0.484375
vt 0.812500 0.484375
vn 0.000000 0.000000 -1.000000
vn 1.000000 0.000000 0.000000
vn 0.000000 0.000000 1.000000
vn -1.000000 0.000000 0.000000
vn 0.000000 1.000000 0.000000
vn 0.000000 -1.000000 0.000000
f 148/340/85 151/339/85 149/338/85 146/337/85
f 147/344/86 148/343/86 146/342/86 145/341/86
f 152/348/87 147/347/87 145/346/87 150/345/87
f 151/352/88 152/351/88 150/350/88 149/349/88
f 150/356/89 145/355/89 146/354/89 149/353/89
f 151/360/90 148/359/90 147/358/90 152/357/90
o cube
v -0.250000 1.000000 0.375000
v -0.250000 1.000000 0.500000
v -0.250000 0.187500 0.375000
v -0.250000 0.187500 0.500000
v 0.250000 1.000000 0.500000
v 0.250000 1.000000 0.375000
v 0.250000 0.187500 0.500000
v 0.250000 0.187500 0.375000
vt 0.000000 0.468750
vt 0.125000 0.468750
vt 0.125000 0.265625
vt 0.000000 0.265625
vt 0.328125 0.312500
vt 0.359375 0.312500
vt 0.359375 0.109375
vt 0.328125 0.109375
vt 0.546875 0.562500
vt 0.671875 0.562500
vt 0.671875 0.359375
vt 0.546875 0.359375
vt 0.375000 0.312500
vt 0.406250 0.312500
vt 0.406250 0.109375
vt 0.375000 0.109375
vt 0.546875 0.250000
vt 0.421875 0.250000
vt 0.421875 0.281250
vt 0.546875 0.281250
vt 0.687500 0.281250
vt 0.562500 0.281250
vt 0.562500 0.250000
vt 0.687500 0.250000
vn 0.000000 0.000000 1.000000
vn -1.000000 0.000000 0.000000
vn -0.000000 0.000000 -1.000000
vn 1.000000 0.000000 -0.000000
vn 0.000000 1.000000 0.000000
vn 0.000000 -1.000000 0.000000
f 156/364/91 159/363/91 157/362/91 154/361/91
f 155/368/92 156/367/92 154/366/92 153/365/92
f 160/372/93 155/371/93 153/370/93 158/369/93
f 159/376/94 160/375/94 158/374/94 157/373/94
f 158/380/95 153/379/95 154/378/95 157/377/95
f 159/384/96 156/383/96 155/382/96 160/381/96
o cube
v -0.375000 1.000000 -0.250000
v -0.500000 1.000000 -0.250000
v -0.375000 0.187500 -0.250000
v -0.500000 0.187500 -0.250000
v -0.500000 1.000000 0.250000
v -0.375000 1.000000 0.250000
v -0.500000 0.187500 0.250000
v -0.375000 0.187500 0.250000
vt 0.500000 1.000000
vt 0.625000 1.000000
vt 0.625000 0.796875
vt 0.500000 0.796875
vt 0.234375 0.312500
vt 0.265625 0.312500
vt 0.265625 0.109375
vt 0.234375 0.109375
vt 0.500000 0.781250
vt 0.625000 0.781250
vt 0.625000 0.578125
vt 0.500000 0.578125
vt 0.281250 0.312500
vt 0.312500 0.312500
vt 0.312500 0.109375
vt 0.281250 0.109375
vt 0.812500 0.437500
vt 0.687500 0.437500
vt 0.687500 0.468750
vt 0.812500 0.468750
vt 0.812500 0.421875
vt 0.687500 0.421875
vt 0.687500 0.390625
vt 0.812500 0.390625
vn -1.000000 0.000000 -0.000000
vn 0.000000 0.000000 -1.000000
vn 1.000000 0.000000 0.000000
vn -0.000000 0.000000 1.000000
vn 0.000000 1.000000 0.000000
vn 0.000000 -1.000000 0.000000
f 164/388/97 167/387/97 165/386/97 162/385/97
f 163/392/98 164/391/98 162/390/98 161/389/98
f 168/396/99 163/395/99 161/394/99 166/393/99
f 167/400/100 168/399/100 166/398/100 165/397/100
f 166/404/101 161/403/101 162/402/101 165/401/101
f 167/408/102 164/407/102 163/406/102 168/405/102
