v 0.375000 0.625000 -0.062500
v -0.375000 0.625000 -0.062500
v -0.250000 0.625000 -0.062500
v 0.250000 0.625000 -0.062500
v -0.250000 0.125000 -0.062500
v -0.375000 0.125000 -0.062500
v -0.250000 0.625000 -0.062500
v -0.375000 0.625000 -0.062500
v 0.375000 0.125000 -0.062500
v 0.250000 0.125000 -0.062500
v 0.375000 0.625000 -0.062500
v 0.250000 0.625000 -0.062500
v -0.375000 0.000000 -0.062500
v -0.375000 0.125000 -0.062500
v 0.375000 0.000000 -0.062500
v 0.375000 0.125000 -0.062500
v 0.250000 0.125000 -0.062500
v 0.250000 0.000000 -0.062500
v -0.250000 0.125000 -0.062500
v -0.250000 0.000000 -0.062500
v -0.250000 0.750000 -0.062500
v 0.250000 0.750000 -0.062500
v 0.375000 0.750000 -0.062500
v -0.375000 0.750000 -0.062500
v 0.375000 0.625000 0.062500
v -0.375000 0.750000 -0.062500
v -0.250000 0.750000 -0.062500
v -0.250000 0.625000 -0.062500
v -0.375000 0.625000 -0.062500
v -0.375000 0.750000 0.062500
v -0.250000 0.750000 0.062500
v -0.250000 0.625000 0.062500
v -0.375000 0.625000 0.062500
v 0.375000 0.000000 0.062500
v 0.250000 0.000000 0.062500
v 0.250000 0.125000 0.062500
v 0.375000 0.125000 0.062500
v -0.375000 0.125000 -0.062500
v -0.250000 0.125000 -0.062500
v -0.250000 0.000000 -0.062500
v -0.375000 0.000000 -0.062500
v -0.375000 0.125000 0.062500
v -0.250000 0.125000 0.062500
v -0.250000 0.000000 0.062500
v -0.375000 0.000000 0.062500
v 0.250000 0.625000 0.062500
v 0.250000 0.750000 0.062500
v 0.375000 0.750000 0.062500
vt 0.625000 0.625000
vt 0.750000 0.625000
vt 0.750000 0.750000
vt 0.625000 0.750000
vt 0.625136 0.624865
vt 0.750131 0.625404
vt 0.750136 0.749865
vt 0.625136 0.749865
vt 0.750000 0.812500
vt 0.750000 0.937500
vt 0.625000 0.937500
vt 0.625000 0.812500
vt 0.125000 0.625000
vt 0.625000 0.625000
vt 0.625000 0.750000
vt 0.125000 0.750000
vt 0.625000 0.750000
vt 0.125000 0.750000
vt 0.125000 0.625000
vt 0.625000 0.625000
vt 0.125000 0.625000
vt 0.625000 0.625000
vt 0.625000 0.750000
vt 0.125000 0.750000
vt 0.125000 0.375000
vt 0.125000 0.250000
vt 0.625000 0.250000
vt 0.625000 0.375000
vt 0.125000 0.375000
vt 0.125000 0.250000
vt 0.625000 0.250000
vt 0.625000 0.375000
vt 0.125000 0.375000
vt 0.125000 0.250000
vt 0.625000 0.250000
vt 0.625000 0.375000
vt 0.625000 0.250000
vt 0.625000 0.375000
vt 0.125000 0.375000
vt 0.125000 0.250000
vt 0.125000 0.375000
vt 0.125000 0.250000
vt 0.625000 0.250000
vt 0.625000 0.375000
vt 0.125000 0.375000
vt 0.125000 0.250000
vt 0.625000 0.250000
vt 0.625000 0.375000
vt 0.125000 0.375000
vt 0.125000 0.250000
vt 0.625000 0.250000
vt 0.625000 0.375000
vt 0.625000 0.250000
vt 0.625000 0.375000
vt 0.125000 0.375000
vt 0.125000 0.250000
vt 0.125538 0.749457
vt 0.000543 0.750538
vt 0.000000 0.625543
vt 0.124457 0.624462
vt 0.625000 0.625000
vt 0.750000 0.625000
vt 0.750000 0.750000
vt 0.625000 0.750000
vt 0.000543 0.624462
vt 0.125538 0.625543
vt 0.124457 0.750538
vt 0.000000 0.749457
vt 0.000000 0.812500
vt 0.125000 0.812500
vt 0.125000 0.937500
vt 0.000000 0.937500
vt 0.625000 0.750000
vt 0.125000 0.750000
vt 0.125000 0.625000
vt 0.625000 0.625000
vt 0.125000 0.625000
vt 0.625000 0.625000
vt 0.625000 0.750000
vt 0.125000 0.750000
vt 0.625000 0.750000
vt 0.125000 0.750000
vt 0.125000 0.625000
vt 0.625000 0.625000
vt 0.125000 0.625000
vt 0.625000 0.625000
vt 0.625000 0.750000
vt 0.125000 0.750000
vt 0.750000 0.750000
vt 0.625000 0.750000
vt 0.625000 0.625000
vt 0.750000 0.625000
vt 0.124457 0.811962
vt 0.125538 0.936957
vt 0.000543 0.938038
vt 0.000000 0.813043
vt 0.000133 0.625135
vt 0.125133 0.625135
vt 0.125133 0.750135
vt 0.000138 0.749596
vt 0.000271 0.624999
vt 0.125271 0.625004
vt 0.124729 0.749999
vt 0.000267 0.749999
vt 0.625000 0.750000
vt 0.125000 0.750000
vt 0.125000 0.625000
vt 0.625000 0.625000
vt 0.750000 0.812500
vt 0.750000 0.937500
vt 0.625000 0.937500
vt 0.625000 0.812500
vt 0.625000 0.937500
vt 0.750000 0.937500
vt 0.750000 0.812500
vt 0.625000 0.812500
vt 0.000000 0.937500
vt 0.125000 0.937500
vt 0.125000 0.812500
vt 0.000000 0.812500
vt 0.750000 0.937500
vt 0.625000 0.937500
vt 0.625000 0.812500
vt 0.750000 0.812500
vt 0.750000 0.937500
vt 0.625000 0.937500
vt 0.625000 0.812500
vt 0.750000 0.812500
vt 0.625000 0.812500
vt 0.625000 0.937500
vt 0.750000 0.937500
vt 0.750000 0.812500
vt 0.000543 0.938038
vt 0.125538 0.936957
vt 0.124457 0.811962
vt 0.000000 0.813043
vn 1.000000 -0.000000 -0.000000
vn -1.000000 0.000000 0.000000
vn -0.000000 0.000000 -1.000000
vn 0.000000 -0.000000 1.000000
vn 0.000000 -1.000000 0.000000
vn -0.000000 0.000000 -1.000000
vn 1.000000 0.000000 -0.000000
vn -1.000000 -0.000000 -0.000000
vn 0.000000 -0.000000 1.000000
vn -0.000000 -0.000000 -1.000000
vn 1.000000 0.000000 -0.000000
vn -1.000000 -0.000000 -0.000000
vn 0.000000 -0.000000 1.000000
vn -0.000000 -0.000000 -1.000000
vn -1.000000 -0.000000 0.000000
vn 1.000000 0.000000 -0.000000
vn 0.000000 -1.000000 0.000000
vn 0.000000 -0.000000 -1.000000
vn 0.000000 0.000000 1.000000
vn -0.000000 1.000000 -0.000000
vn 0.000000 -0.000000 -1.000000
vn 0.000000 -1.000000 0.000000
vn 0.000000 -1.000000 0.000000
vn -0.000000 0.000000 -1.000000
vn -0.000000 1.000000 0.000000
vn -0.000000 1.000000 0.000000
vn -0.000000 1.000000 0.000000
vn -0.000000 0.000000 -1.000000
vn 0.000000 -0.000000 1.000000
vn 0.000000 0.000000 1.000000
vn 0.000000 -0.000000 -1.000000
vn 0.000000 -0.000000 -1.000000
vn 0.000000 0.000000 1.000000
vn 0.000000 -0.000000 1.000000
v 0.250000 0.125000 0.187500
v 0.250000 0.625000 0.187500
v 0.250000 0.625000 -0.312500
v 0.250000 0.125000 -0.312500
v -0.250000 0.625000 0.000000
v -0.250000 0.125000 0.000000
v 0.250000 0.625000 0.500000
v 0.250000 0.125000 0.500000
v 0.250000 0.625000 -0.000000
v 0.250000 0.125000 -0.000000
v 0.250000 0.625000 -0.000000
v 0.250000 0.125000 -0.000000
v 0.250000 0.125000 -0.000000
v 0.250000 0.125000 0.500000
v 0.250000 0.125000 -0.000000
vt 1.000000 0.000000
vt 1.000000 1.000000
vt 0.000000 1.000000
vt 0.000000 0.000000
vt 0.000000 1.000000
vt 0.500000 1.000000
vt 0.500000 1.000000
vt 0.500000 1.000000
vt 0.000000 1.000000
vt 0.500000 1.000000
vt 0.000000 1.000000
vt 0.000000 1.000000
vt 0.000000 1.000000
vt 0.000000 1.000000
vt 0.500000 1.000000
vt 0.000000 1.000000
vt 0.500000 1.000000
vn -0.000000 0.000000 -1.000000
vn 0.000000 0.000000 0.000000
vn 0.000000 0.000000 0.000000
vn 0.000000 0.000000 0.000000
vn 0.000000 0.000000 0.000000
o panel
f 1/1/1 23/2/1 48/3/1 25/4/1
f 33/5/2 30/6/2 24/7/2 2/8/2
f 24/9/3 21/10/3 3/11/3 2/12/3
f 32/13/4 46/14/4 47/15/4 31/16/4
f 3/17/5 4/18/5 46/19/5 32/20/5
f 21/21/6 22/22/6 4/23/6 3/24/6
f 43/25/7 5/26/7 7/27/7 32/28/7
f 6/29/8 42/30/8 33/31/8 8/32/8
f 42/33/9 43/34/9 32/35/9 33/36/9
f 8/37/10 7/38/10 5/39/10 6/40/10
f 37/41/11 9/42/11 11/43/11 25/44/11
f 10/45/12 36/46/12 46/47/12 12/48/12
f 36/49/13 37/50/13 25/51/13 46/52/13
f 12/53/14 11/54/14 9/55/14 10/56/14
f 14/57/15 13/58/15 45/59/15 42/60/15
f 37/61/16 34/62/16 15/63/16 16/64/16
f 34/65/17 35/66/17 18/67/17 15/68/17
f 15/69/18 18/70/18 17/71/18 16/72/18
f 36/73/19 43/74/19 44/75/19 35/76/19
f 17/77/20 19/78/20 43/79/20 36/80/20
f 18/81/21 20/82/21 19/83/21 17/84/21
f 35/85/22 44/86/22 20/87/22 18/88/22
f 13/89/23 20/90/23 44/91/23 45/92/23
f 1/93/24 4/94/24 22/95/24 23/96/24
f 30/97/25 31/98/25 21/99/25 24/100/25
f 23/101/26 22/102/26 47/103/26 48/104/26
f 31/105/27 47/106/27 22/107/27 21/108/27
f 26/109/28 27/110/28 28/111/28 29/112/28
f 32/113/29 31/114/29 30/115/29 33/116/29
f 37/117/30 36/118/30 35/119/30 34/120/30
f 14/121/31 19/122/31 20/123/31 13/124/31
f 38/125/32 39/126/32 40/127/32 41/128/32
f 44/129/33 43/130/33 42/131/33 45/132/33
f 47/133/34 46/134/34 25/135/34 48/136/34
o glass
f 54/137/35 53/138/35 59/139/35 60/140/35
