# Made in Blockbench 5.1.6
mtllib DANK.mtl

o SIDE_CUT_2
v -0.375000 0.750000 0.250000
v -0.375000 0.750000 0.375000
v -0.375000 0.625000 0.250000
v -0.375000 0.625000 0.375000
v 0.375000 0.750000 0.250000
v 0.375000 0.750000 0.375000
v 0.375000 0.625000 0.250000
v 0.375000 0.625000 0.375000
v 0.250000 0.750000 0.250000
v 0.250000 0.625000 0.250000
v 0.250000 0.625000 0.375000
v 0.250000 0.750000 0.375000
v -0.250000 0.750000 0.250000
v -0.250000 0.625000 0.250000
v -0.250000 0.625000 0.375000
v -0.250000 0.750000 0.375000
vt 0.125000 0.625000
vt 0.125000 0.750000
vt 0.000000 0.750000
vt 0.000000 0.625000
vt 0.125000 0.625000
vt 0.125000 0.750000
vt 0.000000 0.750000
vt 0.000000 0.625000
vt 0.000000 0.875000
vt 0.375000 0.875000
vt 0.375000 1.000000
vt 0.000000 1.000000
vt 1.000000 0.750000
vt 0.625000 0.750000
vt 0.625000 0.625000
vt 1.000000 0.625000
vt 0.375000 0.875000
vt 0.562500 0.875000
vt 0.562500 1.000000
vt 0.375000 1.000000
vt 0.375000 0.875000
vt 0.562500 0.875000
vt 0.562500 1.000000
vt 0.375000 1.000000
vt 0.625000 0.750000
vt 0.437500 0.750000
vt 0.437500 0.625000
vt 0.625000 0.625000
vt 0.375000 0.875000
vt 0.562500 0.875000
vt 0.562500 1.000000
vt 0.375000 1.000000
vt 0.250000 0.625000
vt 0.437500 0.625000
vt 0.437500 0.750000
vt 0.250000 0.750000
vt 0.750000 1.000000
vt 0.562500 1.000000
vt 0.562500 0.875000
vt 0.750000 0.875000
vn -1.000000 0.000000 0.000000
vn 1.000000 0.000000 -0.000000
vn 0.000000 1.000000 0.000000
vn 0.000000 0.000000 1.000000
vn -0.000000 0.000000 -1.000000
vn 0.000000 -1.000000 0.000000
vn 0.000000 0.000000 1.000000
vn 0.000000 1.000000 0.000000
vn 0.000000 0.000000 1.000000
vn 0.000000 1.000000 0.000000
usemtl none
f 4/1/1 2/2/1 1/3/1 3/4/1
f 7/5/2 5/6/2 6/7/2 8/8/2
f 5/9/3 9/10/3 12/11/3 6/12/3
f 6/13/4 12/14/4 11/15/4 8/16/4
f 10/17/5 14/18/5 13/19/5 9/20/5
f 11/21/6 15/22/6 14/23/6 10/24/6
f 12/25/7 16/26/7 15/27/7 11/28/7
f 9/29/8 13/30/8 16/31/8 12/32/8
f 4/33/9 15/34/9 16/35/9 2/36/9
f 2/37/10 16/38/10 13/39/10 1/40/10
o cube
v 0.250000 0.750000 0.250000
v 0.375000 0.750000 0.250000
v 0.250000 0.625000 0.250000
v 0.375000 0.625000 0.250000
v 0.250000 0.750000 -0.250000
v 0.375000 0.750000 -0.250000
v 0.250000 0.625000 -0.250000
v 0.375000 0.625000 -0.250000
vt 0.500000 0.875000
vt 0.500000 1.000000
vt 0.000000 1.000000
vt 0.000000 0.875000
vt 0.500000 0.875000
vt 0.500000 1.000000
vt 0.000000 1.000000
vt 0.000000 0.875000
vt 0.500000 0.625000
vt 0.500000 0.750000
vt 0.000000 0.750000
vt 0.000000 0.625000
vt 1.000000 0.625000
vt 1.000000 0.750000
vt 0.500000 0.750000
vt 0.500000 0.625000
vn 0.000000 1.000000 0.000000
vn 0.000000 -1.000000 0.000000
vn -1.000000 0.000000 0.000000
vn 1.000000 0.000000 -0.000000
usemtl none
f 17/41/11 18/42/11 22/43/11 21/44/11
f 20/45/12 19/46/12 23/47/12 24/48/12
f 19/49/13 17/50/13 21/51/13 23/52/13
f 24/53/14 22/54/14 18/55/14 20/56/14
o cube
v -0.375000 0.750000 0.250000
v -0.250000 0.750000 0.250000
v -0.375000 0.625000 0.250000
v -0.250000 0.625000 0.250000
v -0.375000 0.750000 -0.250000
v -0.250000 0.750000 -0.250000
v -0.375000 0.625000 -0.250000
v -0.250000 0.625000 -0.250000
vt 0.500000 0.875000
vt 0.500000 1.000000
vt 0.000000 1.000000
vt 0.000000 0.875000
vt 0.500000 0.875000
vt 0.500000 1.000000
vt 0.000000 1.000000
vt 0.000000 0.875000
vt 0.500000 0.625000
vt 0.500000 0.750000
vt 0.000000 0.750000
vt 0.000000 0.625000
vt 1.000000 0.625000
vt 1.000000 0.750000
vt 0.500000 0.750000
vt 0.500000 0.625000
vn 0.000000 1.000000 0.000000
vn 0.000000 -1.000000 0.000000
vn -1.000000 0.000000 0.000000
vn 1.000000 0.000000 -0.000000
usemtl none
f 25/57/15 26/58/15 30/59/15 29/60/15
f 28/61/16 27/62/16 31/63/16 32/64/16
f 27/65/17 25/66/17 29/67/17 31/68/17
f 32/69/18 30/70/18 26/71/18 28/72/18
o SIDE_CUT
v 0.375000 0.750000 -0.250000
v 0.375000 0.750000 -0.375000
v 0.375000 0.625000 -0.250000
v 0.375000 0.625000 -0.375000
v -0.375000 0.750000 -0.250000
v -0.375000 0.750000 -0.375000
v -0.375000 0.625000 -0.250000
v -0.375000 0.625000 -0.375000
v -0.250000 0.750000 -0.250000
v -0.250000 0.625000 -0.250000
v -0.250000 0.625000 -0.375000
v -0.250000 0.750000 -0.375000
v 0.250000 0.750000 -0.250000
v 0.250000 0.625000 -0.250000
v 0.250000 0.625000 -0.375000
v 0.250000 0.750000 -0.375000
vt 0.125000 0.625000
vt 0.125000 0.750000
vt 0.000000 0.750000
vt 0.000000 0.625000
vt 0.125000 0.625000
vt 0.125000 0.750000
vt 0.000000 0.750000
vt 0.000000 0.625000
vt 0.000000 0.875000
vt 0.375000 0.875000
vt 0.375000 1.000000
vt 0.000000 1.000000
vt 1.000000 0.750000
vt 0.625000 0.750000
vt 0.625000 0.625000
vt 1.000000 0.625000
vt 0.375000 0.875000
vt 0.562500 0.875000
vt 0.562500 1.000000
vt 0.375000 1.000000
vt 0.375000 0.875000
vt 0.562500 0.875000
vt 0.562500 1.000000
vt 0.375000 1.000000
vt 0.625000 0.750000
vt 0.437500 0.750000
vt 0.437500 0.625000
vt 0.625000 0.625000
vt 0.375000 0.875000
vt 0.562500 0.875000
vt 0.562500 1.000000
vt 0.375000 1.000000
vt 0.250000 0.625000
vt 0.437500 0.625000
vt 0.437500 0.750000
vt 0.250000 0.750000
vt 0.750000 1.000000
vt 0.562500 1.000000
vt 0.562500 0.875000
vt 0.750000 0.875000
vn 1.000000 0.000000 0.000000
vn -1.000000 0.000000 0.000000
vn 0.000000 1.000000 0.000000
vn 0.000000 0.000000 -1.000000
vn 0.000000 0.000000 1.000000
vn 0.000000 -1.000000 0.000000
vn 0.000000 0.000000 -1.000000
vn 0.000000 1.000000 0.000000
vn 0.000000 0.000000 -1.000000
vn 0.000000 1.000000 0.000000
usemtl none
f 36/73/19 34/74/19 33/75/19 35/76/19
f 39/77/20 37/78/20 38/79/20 40/80/20
f 37/81/21 41/82/21 44/83/21 38/84/21
f 38/85/22 44/86/22 43/87/22 40/88/22
f 42/89/23 46/90/23 45/91/23 41/92/23
f 43/93/24 47/94/24 46/95/24 42/96/24
f 44/97/25 48/98/25 47/99/25 43/100/25
f 41/101/26 45/102/26 48/103/26 44/104/26
f 36/105/27 47/106/27 48/107/27 34/108/27
f 34/109/28 48/110/28 45/111/28 33/112/28
o SIDE_CUT_2
v -0.375000 0.000000 -0.250000
v -0.375000 0.000000 -0.375000
v -0.375000 0.125000 -0.250000
v -0.375000 0.125000 -0.375000
v 0.375000 0.000000 -0.250000
v 0.375000 0.000000 -0.375000
v 0.375000 0.125000 -0.250000
v 0.375000 0.125000 -0.375000
v 0.250000 0.000000 -0.250000
v 0.250000 0.125000 -0.250000
v 0.250000 0.125000 -0.375000
v 0.250000 0.000000 -0.375000
v -0.250000 0.000000 -0.250000
v -0.250000 0.125000 -0.250000
v -0.250000 0.125000 -0.375000
v -0.250000 0.000000 -0.375000
vt 0.125000 0.625000
vt 0.125000 0.750000
vt 0.000000 0.750000
vt 0.000000 0.625000
vt 0.125000 0.625000
vt 0.125000 0.750000
vt 0.000000 0.750000
vt 0.000000 0.625000
vt 0.000000 0.875000
vt 0.375000 0.875000
vt 0.375000 1.000000
vt 0.000000 1.000000
vt 1.000000 0.750000
vt 0.625000 0.750000
vt 0.625000 0.625000
vt 1.000000 0.625000
vt 0.375000 0.875000
vt 0.562500 0.875000
vt 0.562500 1.000000
vt 0.375000 1.000000
vt 0.375000 0.875000
vt 0.562500 0.875000
vt 0.562500 1.000000
vt 0.375000 1.000000
vt 0.625000 0.750000
vt 0.437500 0.750000
vt 0.437500 0.625000
vt 0.625000 0.625000
vt 0.375000 0.875000
vt 0.562500 0.875000
vt 0.562500 1.000000
vt 0.375000 1.000000
vt 0.250000 0.625000
vt 0.437500 0.625000
vt 0.437500 0.750000
vt 0.250000 0.750000
vt 0.750000 1.000000
vt 0.562500 1.000000
vt 0.562500 0.875000
vt 0.750000 0.875000
vn -1.000000 0.000000 -0.000000
vn 1.000000 -0.000000 0.000000
vn 0.000000 -1.000000 -0.000000
vn 0.000000 0.000000 -1.000000
vn -0.000000 -0.000000 1.000000
vn 0.000000 1.000000 0.000000
vn 0.000000 0.000000 -1.000000
vn 0.000000 -1.000000 -0.000000
vn 0.000000 0.000000 -1.000000
vn 0.000000 -1.000000 -0.000000
usemtl none
f 52/113/29 50/114/29 49/115/29 51/116/29
f 55/117/30 53/118/30 54/119/30 56/120/30
f 53/121/31 57/122/31 60/123/31 54/124/31
f 54/125/32 60/126/32 59/127/32 56/128/32
f 58/129/33 62/130/33 61/131/33 57/132/33
f 59/133/34 63/134/34 62/135/34 58/136/34
f 60/137/35 64/138/35 63/139/35 59/140/35
f 57/141/36 61/142/36 64/143/36 60/144/36
f 52/145/37 63/146/37 64/147/37 50/148/37
f 50/149/38 64/150/38 61/151/38 49/152/38
o cube
v 0.250000 0.000000 -0.250000
v 0.375000 0.000000 -0.250000
v 0.250000 0.125000 -0.250000
v 0.375000 0.125000 -0.250000
v 0.250000 -0.000000 0.250000
v 0.375000 -0.000000 0.250000
v 0.250000 0.125000 0.250000
v 0.375000 0.125000 0.250000
vt 0.500000 0.875000
vt 0.500000 1.000000
vt 0.000000 1.000000
vt 0.000000 0.875000
vt 0.500000 0.875000
vt 0.500000 1.000000
vt 0.000000 1.000000
vt 0.000000 0.875000
vt 0.500000 0.625000
vt 0.500000 0.750000
vt 0.000000 0.750000
vt 0.000000 0.625000
vt 1.000000 0.625000
vt 1.000000 0.750000
vt 0.500000 0.750000
vt 0.500000 0.625000
vn 0.000000 -1.000000 -0.000000
vn 0.000000 1.000000 0.000000
vn -1.000000 0.000000 -0.000000
vn 1.000000 -0.000000 0.000000
usemtl none
f 65/153/39 66/154/39 70/155/39 69/156/39
f 68/157/40 67/158/40 71/159/40 72/160/40
f 67/161/41 65/162/41 69/163/41 71/164/41
f 72/165/42 70/166/42 66/167/42 68/168/42
o cube
v -0.375000 0.000000 -0.250000
v -0.250000 0.000000 -0.250000
v -0.375000 0.125000 -0.250000
v -0.250000 0.125000 -0.250000
v -0.375000 -0.000000 0.250000
v -0.250000 -0.000000 0.250000
v -0.375000 0.125000 0.250000
v -0.250000 0.125000 0.250000
vt 0.500000 0.875000
vt 0.500000 1.000000
vt 0.000000 1.000000
vt 0.000000 0.875000
vt 0.500000 0.875000
vt 0.500000 1.000000
vt 0.000000 1.000000
vt 0.000000 0.875000
vt 0.500000 0.625000
vt 0.500000 0.750000
vt 0.000000 0.750000
vt 0.000000 0.625000
vt 1.000000 0.625000
vt 1.000000 0.750000
vt 0.500000 0.750000
vt 0.500000 0.625000
vn 0.000000 -1.000000 -0.000000
vn 0.000000 1.000000 0.000000
vn -1.000000 0.000000 -0.000000
vn 1.000000 -0.000000 0.000000
usemtl none
f 73/169/43 74/170/43 78/171/43 77/172/43
f 76/173/44 75/174/44 79/175/44 80/176/44
f 75/177/45 73/178/45 77/179/45 79/180/45
f 80/181/46 78/182/46 74/183/46 76/184/46
o SIDE_CUT
v 0.375000 -0.000000 0.250000
v 0.375000 -0.000000 0.375000
v 0.375000 0.125000 0.250000
v 0.375000 0.125000 0.375000
v -0.375000 -0.000000 0.250000
v -0.375000 -0.000000 0.375000
v -0.375000 0.125000 0.250000
v -0.375000 0.125000 0.375000
v -0.250000 -0.000000 0.250000
v -0.250000 0.125000 0.250000
v -0.250000 0.125000 0.375000
v -0.250000 -0.000000 0.375000
v 0.250000 -0.000000 0.250000
v 0.250000 0.125000 0.250000
v 0.250000 0.125000 0.375000
v 0.250000 -0.000000 0.375000
vt 0.125000 0.625000
vt 0.125000 0.750000
vt 0.000000 0.750000
vt 0.000000 0.625000
vt 0.125000 0.625000
vt 0.125000 0.750000
vt 0.000000 0.750000
vt 0.000000 0.625000
vt 0.000000 0.875000
vt 0.375000 0.875000
vt 0.375000 1.000000
vt 0.000000 1.000000
vt 1.000000 0.750000
vt 0.625000 0.750000
vt 0.625000 0.625000
vt 1.000000 0.625000
vt 0.375000 0.875000
vt 0.562500 0.875000
vt 0.562500 1.000000
vt 0.375000 1.000000
vt 0.375000 0.875000
vt 0.562500 0.875000
vt 0.562500 1.000000
vt 0.375000 1.000000
vt 0.625000 0.750000
vt 0.437500 0.750000
vt 0.437500 0.625000
vt 0.625000 0.625000
vt 0.375000 0.875000
vt 0.562500 0.875000
vt 0.562500 1.000000
vt 0.375000 1.000000
vt 0.250000 0.625000
vt 0.437500 0.625000
vt 0.437500 0.750000
vt 0.250000 0.750000
vt 0.750000 1.000000
vt 0.562500 1.000000
vt 0.562500 0.875000
vt 0.750000 0.875000
vn 1.000000 0.000000 0.000000
vn -1.000000 0.000000 0.000000
vn 0.000000 -1.000000 -0.000000
vn 0.000000 -0.000000 1.000000
vn 0.000000 0.000000 -1.000000
vn 0.000000 1.000000 0.000000
vn 0.000000 -0.000000 1.000000
vn 0.000000 -1.000000 -0.000000
vn 0.000000 -0.000000 1.000000
vn 0.000000 -1.000000 -0.000000
usemtl none
f 84/185/47 82/186/47 81/187/47 83/188/47
f 87/189/48 85/190/48 86/191/48 88/192/48
f 85/193/49 89/194/49 92/195/49 86/196/49
f 86/197/50 92/198/50 91/199/50 88/200/50
f 90/201/51 94/202/51 93/203/51 89/204/51
f 91/205/52 95/206/52 94/207/52 90/208/52
f 92/209/53 96/210/53 95/211/53 91/212/53
f 89/213/54 93/214/54 96/215/54 92/216/54
f 84/217/55 95/218/55 96/219/55 82/220/55
f 82/221/56 96/222/56 93/223/56 81/224/56
o pillars
v -0.250000 0.125000 -0.250000
v -0.250000 0.125000 -0.375000
v -0.375000 0.125000 -0.250000
v -0.375000 0.125000 -0.375000
v -0.250000 0.625000 -0.250000
v -0.250000 0.625000 -0.375000
v -0.375000 0.625000 -0.250000
v -0.375000 0.625000 -0.375000
vt 0.500000 0.875000
vt 0.500000 1.000000
vt 0.000000 1.000000
vt 0.000000 0.875000
vt 0.500000 0.875000
vt 0.500000 1.000000
vt 0.000000 1.000000
vt 0.000000 0.875000
vt 0.500000 0.625000
vt 0.500000 0.750000
vt 0.000000 0.750000
vt 0.000000 0.625000
vt 1.000000 0.625000
vt 1.000000 0.750000
vt 0.500000 0.750000
vt 0.500000 0.625000
vn 1.000000 0.000000 0.000000
vn -1.000000 -0.000000 0.000000
vn 0.000000 0.000000 1.000000
vn 0.000000 0.000000 -1.000000
usemtl none
f 97/225/57 98/226/57 102/227/57 101/228/57
f 100/229/58 99/230/58 103/231/58 104/232/58
f 99/233/59 97/234/59 101/235/59 103/236/59
f 104/237/60 102/238/60 98/239/60 100/240/60
o pillars
v -0.250000 0.125000 0.375000
v -0.250000 0.125000 0.250000
v -0.375000 0.125000 0.375000
v -0.375000 0.125000 0.250000
v -0.250000 0.625000 0.375000
v -0.250000 0.625000 0.250000
v -0.375000 0.625000 0.375000
v -0.375000 0.625000 0.250000
vt 0.500000 0.875000
vt 0.500000 1.000000
vt 0.000000 1.000000
vt 0.000000 0.875000
vt 0.500000 0.875000
vt 0.500000 1.000000
vt 0.000000 1.000000
vt 0.000000 0.875000
vt 0.500000 0.625000
vt 0.500000 0.750000
vt 0.000000 0.750000
vt 0.000000 0.625000
vt 1.000000 0.625000
vt 1.000000 0.750000
vt 0.500000 0.750000
vt 0.500000 0.625000
vn 1.000000 0.000000 0.000000
vn -1.000000 -0.000000 0.000000
vn 0.000000 0.000000 1.000000
vn 0.000000 0.000000 -1.000000
usemtl none
f 105/241/61 106/242/61 110/243/61 109/244/61
f 108/245/62 107/246/62 111/247/62 112/248/62
f 107/249/63 105/250/63 109/251/63 111/252/63
f 112/253/64 110/254/64 106/255/64 108/256/64
o pillars
v 0.375000 0.125000 -0.250000
v 0.375000 0.125000 -0.375000
v 0.250000 0.125000 -0.250000
v 0.250000 0.125000 -0.375000
v 0.375000 0.625000 -0.250000
v 0.375000 0.625000 -0.375000
v 0.250000 0.625000 -0.250000
v 0.250000 0.625000 -0.375000
vt 0.500000 0.875000
vt 0.500000 1.000000
vt 0.000000 1.000000
vt 0.000000 0.875000
vt 0.500000 0.875000
vt 0.500000 1.000000
vt 0.000000 1.000000
vt 0.000000 0.875000
vt 0.500000 0.625000
vt 0.500000 0.750000
vt 0.000000 0.750000
vt 0.000000 0.625000
vt 1.000000 0.625000
vt 1.000000 0.750000
vt 0.500000 0.750000
vt 0.500000 0.625000
vn 1.000000 0.000000 0.000000
vn -1.000000 -0.000000 0.000000
vn 0.000000 0.000000 1.000000
vn 0.000000 0.000000 -1.000000
usemtl none
f 113/257/65 114/258/65 118/259/65 117/260/65
f 116/261/66 115/262/66 119/263/66 120/264/66
f 115/265/67 113/266/67 117/267/67 119/268/67
f 120/269/68 118/270/68 114/271/68 116/272/68
o pillars
v 0.375000 0.125000 0.375000
v 0.375000 0.125000 0.250000
v 0.250000 0.125000 0.375000
v 0.250000 0.125000 0.250000
v 0.375000 0.625000 0.375000
v 0.375000 0.625000 0.250000
v 0.250000 0.625000 0.375000
v 0.250000 0.625000 0.250000
vt 0.500000 0.875000
vt 0.500000 1.000000
vt 0.000000 1.000000
vt 0.000000 0.875000
vt 0.500000 0.875000
vt 0.500000 1.000000
vt 0.000000 1.000000
vt 0.000000 0.875000
vt 0.500000 0.625000
vt 0.500000 0.750000
vt 0.000000 0.750000
vt 0.000000 0.625000
vt 1.000000 0.625000
vt 1.000000 0.750000
vt 0.500000 0.750000
vt 0.500000 0.625000
vn 1.000000 0.000000 0.000000
vn -1.000000 -0.000000 0.000000
vn 0.000000 0.000000 1.000000
vn 0.000000 0.000000 -1.000000
usemtl none
f 121/273/69 122/274/69 126/275/69 125/276/69
f 124/277/70 123/278/70 127/279/70 128/280/70
f 123/281/71 121/282/71 125/283/71 127/284/71
f 128/285/72 126/286/72 122/287/72 124/288/72
o dankerino
v -0.375000 0.750000 0.250000
v -0.375000 0.750000 0.375000
v -0.375000 0.625000 0.250000
v -0.375000 0.625000 0.375000
v 0.375000 0.750000 0.250000
v 0.375000 0.750000 0.375000
v 0.375000 0.625000 0.250000
v 0.375000 0.625000 0.375000
v 0.250000 0.750000 0.250000
v 0.250000 0.625000 0.250000
v 0.250000 0.625000 0.375000
v 0.250000 0.750000 0.375000
v -0.250000 0.750000 0.250000
v -0.250000 0.625000 0.250000
v -0.250000 0.625000 0.375000
v -0.250000 0.750000 0.375000
v 0.250000 0.750000 0.250000
v 0.375000 0.750000 0.250000
v 0.250000 0.625000 0.250000
v 0.375000 0.625000 0.250000
v 0.250000 0.750000 -0.250000
v 0.375000 0.750000 -0.250000
v 0.250000 0.625000 -0.250000
v 0.375000 0.625000 -0.250000
v -0.375000 0.750000 0.250000
v -0.250000 0.750000 0.250000
v -0.375000 0.625000 0.250000
v -0.250000 0.625000 0.250000
v -0.375000 0.750000 -0.250000
v -0.250000 0.750000 -0.250000
v -0.375000 0.625000 -0.250000
v -0.250000 0.625000 -0.250000
v 0.375000 0.750000 -0.250000
v 0.375000 0.750000 -0.375000
v 0.375000 0.625000 -0.250000
v 0.375000 0.625000 -0.375000
v -0.375000 0.750000 -0.250000
v -0.375000 0.750000 -0.375000
v -0.375000 0.625000 -0.250000
v -0.375000 0.625000 -0.375000
v -0.250000 0.750000 -0.250000
v -0.250000 0.625000 -0.250000
v -0.250000 0.625000 -0.375000
v -0.250000 0.750000 -0.375000
v 0.250000 0.750000 -0.250000
v 0.250000 0.625000 -0.250000
v 0.250000 0.625000 -0.375000
v 0.250000 0.750000 -0.375000
v -0.250000 0.125000 -0.250000
v -0.250000 0.125000 -0.375000
v -0.375000 0.125000 -0.250000
v -0.375000 0.125000 -0.375000
v -0.250000 0.625000 -0.250000
v -0.250000 0.625000 -0.375000
v -0.375000 0.625000 -0.250000
v -0.375000 0.625000 -0.375000
v -0.250000 0.125000 0.375000
v -0.250000 0.125000 0.250000
v -0.375000 0.125000 0.375000
v -0.375000 0.125000 0.250000
v -0.250000 0.625000 0.375000
v -0.250000 0.625000 0.250000
v -0.375000 0.625000 0.375000
v -0.375000 0.625000 0.250000
v 0.375000 0.125000 -0.250000
v 0.375000 0.125000 -0.375000
v 0.250000 0.125000 -0.250000
v 0.250000 0.125000 -0.375000
v 0.375000 0.625000 -0.250000
v 0.375000 0.625000 -0.375000
v 0.250000 0.625000 -0.250000
v 0.250000 0.625000 -0.375000
v 0.375000 0.125000 0.375000
v 0.375000 0.125000 0.250000
v 0.250000 0.125000 0.375000
v 0.250000 0.125000 0.250000
v 0.375000 0.625000 0.375000
v 0.375000 0.625000 0.250000
v 0.250000 0.625000 0.375000
v 0.250000 0.625000 0.250000
v -0.375000 0.000000 -0.250000
v -0.375000 0.000000 -0.375000
v -0.375000 0.125000 -0.250000
v -0.375000 0.125000 -0.375000
v 0.375000 0.000000 -0.250000
v 0.375000 0.000000 -0.375000
v 0.375000 0.125000 -0.250000
v 0.375000 0.125000 -0.375000
v 0.250000 0.000000 -0.250000
v 0.250000 0.125000 -0.250000
v 0.250000 0.125000 -0.375000
v 0.250000 0.000000 -0.375000
v -0.250000 0.000000 -0.250000
v -0.250000 0.125000 -0.250000
v -0.250000 0.125000 -0.375000
v -0.250000 0.000000 -0.375000
v 0.250000 0.000000 -0.250000
v 0.375000 0.000000 -0.250000
v 0.250000 0.125000 -0.250000
v 0.375000 0.125000 -0.250000
v 0.250000 -0.000000 0.250000
v 0.375000 -0.000000 0.250000
v 0.250000 0.125000 0.250000
v 0.375000 0.125000 0.250000
v -0.375000 0.000000 -0.250000
v -0.250000 0.000000 -0.250000
v -0.375000 0.125000 -0.250000
v -0.250000 0.125000 -0.250000
v -0.375000 0.000000 0.250000
v -0.250000 0.000000 0.250000
v -0.375000 0.125000 0.250000
v -0.250000 0.125000 0.250000
v 0.375000 -0.000000 0.250000
v 0.375000 -0.000000 0.375000
v 0.375000 0.125000 0.250000
v 0.375000 0.125000 0.375000
v -0.375000 0.000000 0.250000
v -0.375000 0.000000 0.375000
v -0.375000 0.125000 0.250000
v -0.375000 0.125000 0.375000
v -0.250000 0.000000 0.250000
v -0.250000 0.125000 0.250000
v -0.250000 0.125000 0.375000
v -0.250000 -0.000000 0.375000
v 0.250000 -0.000000 0.250000
v 0.250000 0.125000 0.250000
v 0.250000 0.125000 0.375000
v 0.250000 -0.000000 0.375000
vt 0.625000 0.812500
vt 0.750000 0.812500
vt 0.750000 0.937500
vt 0.625000 0.937500
vt 0.125000 0.937500
vt 0.000000 0.937500
vt 0.000000 0.812500
vt 0.125000 0.812500
vt 0.125538 0.813043
vt 0.124457 0.938038
vt 0.000000 0.936957
vt 0.000543 0.811962
vt 0.744315 0.807291
vt 0.755209 0.931815
vt 0.630685 0.942709
vt 0.619791 0.818185
vt 0.125000 0.625000
vt 0.625000 0.625000
vt 0.625000 0.750000
vt 0.125000 0.750000
vt 0.625000 0.750000
vt 0.125000 0.750000
vt 0.125000 0.625000
vt 0.625000 0.625000
vt 0.625000 0.562500
vt 0.125000 0.562500
vt 0.125000 0.437500
vt 0.625000 0.437500
vt 0.625000 0.750000
vt 0.125000 0.750000
vt 0.125000 0.625000
vt 0.625000 0.625000
vt 0.125538 0.813043
vt 0.124457 0.938038
vt 0.000000 0.936957
vt 0.000543 0.811962
vt 0.750000 0.812500
vt 0.750000 0.937500
vt 0.625000 0.937500
vt 0.625000 0.812500
vt 0.125000 0.750000
vt 0.125000 0.625000
vt 0.625000 0.625000
vt 0.625000 0.750000
vt 0.124741 0.749999
vt 0.125259 0.625003
vt 0.624741 0.624999
vt 0.624741 0.749999
vt 0.625000 0.625000
vt 0.625000 0.750000
vt 0.125000 0.750000
vt 0.125000 0.625000
vt 0.125000 0.750000
vt 0.125000 0.625000
vt 0.625000 0.625000
vt 0.625000 0.750000
vt 0.625000 0.625000
vt 0.625000 0.750000
vt 0.125000 0.750000
vt 0.125000 0.625000
vt 0.624465 0.622897
vt 0.625000 0.747892
vt 0.125535 0.752103
vt 0.124483 0.627108
vt 0.125000 0.750000
vt 0.125000 0.625000
vt 0.625000 0.625000
vt 0.625000 0.750000
vt 0.625000 0.625000
vt 0.625000 0.750000
vt 0.125000 0.750000
vt 0.125000 0.625000
vt 0.625000 0.812500
vt 0.750000 0.812500
vt 0.750000 0.937500
vt 0.625000 0.937500
vt 0.125133 0.937635
vt 0.000138 0.937096
vt 0.000133 0.812635
vt 0.125133 0.812635
vt 0.124457 0.811962
vt 0.125538 0.936957
vt 0.000543 0.938038
vt 0.000000 0.813043
vt 0.750000 0.812500
vt 0.750000 0.937500
vt 0.625000 0.937500
vt 0.625000 0.812500
vt 0.125000 0.625000
vt 0.625000 0.625000
vt 0.625000 0.750000
vt 0.125000 0.750000
vt 0.625000 0.750000
vt 0.125000 0.750000
vt 0.125000 0.625000
vt 0.625000 0.625000
vt 0.125000 0.625000
vt 0.625000 0.625000
vt 0.625000 0.750000
vt 0.125000 0.750000
vt 0.625000 0.750000
vt 0.125000 0.750000
vt 0.125000 0.625000
vt 0.625000 0.625000
vt 0.124457 0.811962
vt 0.125538 0.936957
vt 0.000543 0.938038
vt 0.000000 0.813043
vt 0.750000 0.812500
vt 0.750000 0.937500
vt 0.625000 0.937500
vt 0.625000 0.812500
vt 0.125000 0.375000
vt 0.125000 0.250000
vt 0.625000 0.250000
vt 0.625000 0.375000
vt 0.125000 0.375000
vt 0.125000 0.250000
vt 0.625000 0.250000
vt 0.625000 0.375000
vt 0.125000 0.375000
vt 0.125000 0.250000
vt 0.625000 0.250000
vt 0.625000 0.375000
vt 0.625000 0.250000
vt 0.625000 0.375000
vt 0.125000 0.375000
vt 0.125000 0.250000
vt 0.125000 0.375000
vt 0.125000 0.250000
vt 0.625000 0.250000
vt 0.625000 0.375000
vt 0.125000 0.375000
vt 0.125000 0.250000
vt 0.625000 0.250000
vt 0.625000 0.375000
vt 0.125000 0.375000
vt 0.125000 0.250000
vt 0.625000 0.250000
vt 0.625000 0.375000
vt 0.625000 0.250000
vt 0.625000 0.375000
vt 0.125000 0.375000
vt 0.125000 0.250000
vt 0.125000 0.375000
vt 0.125000 0.250000
vt 0.625000 0.250000
vt 0.625000 0.375000
vt 0.125000 0.375000
vt 0.125000 0.250000
vt 0.625000 0.250000
vt 0.625000 0.375000
vt 0.125000 0.375000
vt 0.125000 0.250000
vt 0.625000 0.250000
vt 0.625000 0.375000
vt 0.625000 0.250000
vt 0.625000 0.375000
vt 0.125000 0.375000
vt 0.125000 0.250000
vt 0.125000 0.375000
vt 0.125000 0.250000
vt 0.625000 0.250000
vt 0.625000 0.375000
vt 0.125000 0.375000
vt 0.125000 0.250000
vt 0.625000 0.250000
vt 0.625000 0.375000
vt 0.125000 0.375000
vt 0.125000 0.250000
vt 0.625000 0.250000
vt 0.625000 0.375000
vt 0.625000 0.250000
vt 0.625000 0.375000
vt 0.125000 0.375000
vt 0.125000 0.250000
vt 0.000000 0.937500
vt 0.000000 0.812500
vt 0.125000 0.812500
vt 0.125000 0.937500
vt 0.625000 0.937500
vt 0.625000 0.812500
vt 0.750000 0.812500
vt 0.750000 0.937500
vt 0.750000 0.937500
vt 0.625000 0.937500
vt 0.625000 0.812500
vt 0.750000 0.812500
vt 0.000000 0.812500
vt 0.125000 0.812500
vt 0.125000 0.937500
vt 0.000000 0.937500
vt 0.625000 0.750000
vt 0.125000 0.750000
vt 0.125000 0.625000
vt 0.625000 0.625000
vt 0.125000 0.625000
vt 0.625000 0.625000
vt 0.625000 0.750000
vt 0.125000 0.750000
vt 0.625000 0.750000
vt 0.125000 0.750000
vt 0.125000 0.625000
vt 0.625000 0.625000
vt 0.125000 0.625000
vt 0.625000 0.625000
vt 0.625000 0.750000
vt 0.125000 0.750000
vt 0.750000 0.937500
vt 0.625000 0.937500
vt 0.625000 0.812500
vt 0.750000 0.812500
vt 0.000000 0.812500
vt 0.125000 0.812500
vt 0.125000 0.937500
vt 0.000000 0.937500
vt 0.624998 0.626036
vt 0.624480 0.751035
vt 0.125002 0.748963
vt 0.125002 0.623966
vt 0.625000 0.625000
vt 0.625000 0.750000
vt 0.125000 0.750000
vt 0.125000 0.625000
vt 0.125000 0.750000
vt 0.125000 0.625000
vt 0.625000 0.625000
vt 0.625000 0.750000
vt 0.625000 0.625000
vt 0.625000 0.750000
vt 0.125000 0.750000
vt 0.125000 0.625000
vt 0.125000 0.750000
vt 0.125000 0.625000
vt 0.625000 0.625000
vt 0.625000 0.750000
vt 0.125000 0.750000
vt 0.125000 0.625000
vt 0.625000 0.625000
vt 0.625000 0.750000
vt 0.625000 0.625000
vt 0.625000 0.750000
vt 0.125000 0.750000
vt 0.125000 0.625000
vt 0.125000 0.750000
vt 0.125000 0.625000
vt 0.625000 0.625000
vt 0.625000 0.750000
vt 0.000000 0.937500
vt 0.000000 0.812500
vt 0.125000 0.812500
vt 0.125000 0.937500
vt 0.625000 0.937500
vt 0.625000 0.812500
vt 0.750000 0.812500
vt 0.750000 0.937500
vt 0.750000 0.937500
vt 0.625000 0.937500
vt 0.625000 0.812500
vt 0.750000 0.812500
vt 0.000000 0.812500
vt 0.125000 0.812500
vt 0.125000 0.937500
vt 0.000000 0.937500
vt 0.625000 0.750000
vt 0.125000 0.750000
vt 0.125000 0.625000
vt 0.625000 0.625000
vt 0.125000 0.625000
vt 0.625000 0.625000
vt 0.625000 0.750000
vt 0.125000 0.750000
vt 0.625000 0.750000
vt 0.125000 0.750000
vt 0.125000 0.625000
vt 0.625000 0.625000
vt 0.125000 0.625000
vt 0.625000 0.625000
vt 0.625000 0.750000
vt 0.125000 0.750000
vt 0.750000 0.937500
vt 0.625000 0.937500
vt 0.625000 0.812500
vt 0.750000 0.812500
vt 0.000000 0.812500
vt 0.125000 0.812500
vt 0.125000 0.937500
vt 0.000000 0.937500
vn -1.000000 -0.000000 0.000000
vn 1.000000 0.000000 -0.000000
vn -0.000000 1.000000 -0.000000
vn 0.000000 0.000000 1.000000
vn 0.000000 -0.000000 -1.000000
vn 0.000000 -1.000000 0.000000
vn 0.000000 0.000000 1.000000
vn -0.000000 1.000000 -0.000000
vn 0.000000 0.000000 1.000000
vn -0.000000 1.000000 -0.000000
vn -0.000000 1.000000 -0.000000
vn 0.000000 -1.000000 0.000000
vn -1.000000 0.000000 0.000000
vn 1.000000 -0.000000 -0.000000
vn -0.000000 1.000000 -0.000000
vn 0.000000 -1.000000 0.000000
vn -1.000000 0.000000 0.000000
vn 1.000000 -0.000000 -0.000000
vn 1.000000 -0.000000 0.000000
vn -1.000000 0.000000 -0.000000
vn -0.000000 1.000000 -0.000000
vn -0.000000 0.000000 -1.000000
vn 0.000000 -0.000000 1.000000
vn 0.000000 -1.000000 0.000000
vn -0.000000 0.000000 -1.000000
vn -0.000000 1.000000 -0.000000
vn -0.000000 0.000000 -1.000000
vn -0.000000 1.000000 -0.000000
vn 1.000000 0.000000 -0.000000
vn -1.000000 -0.000000 0.000000
vn 0.000000 0.000000 1.000000
vn -0.000000 -0.000000 -1.000000
vn 1.000000 0.000000 -0.000000
vn -1.000000 -0.000000 0.000000
vn 0.000000 0.000000 1.000000
vn -0.000000 -0.000000 -1.000000
vn 1.000000 0.000000 -0.000000
vn -1.000000 -0.000000 0.000000
vn 0.000000 0.000000 1.000000
vn -0.000000 -0.000000 -1.000000
vn 1.000000 0.000000 0.000000
vn -1.000000 -0.000000 0.000000
vn 0.000000 0.000000 1.000000
vn -0.000000 -0.000000 -1.000000
vn -1.000000 -0.000000 0.000000
vn 1.000000 0.000000 -0.000000
vn 0.000000 -1.000000 0.000000
vn 0.000000 -0.000000 -1.000000
vn 0.000000 0.000000 1.000000
vn -0.000000 1.000000 0.000000
vn 0.000000 -0.000000 -1.000000
vn 0.000000 -1.000000 0.000000
vn 0.000000 -0.000000 -1.000000
vn 0.000000 -1.000000 0.000000
vn 0.000000 -1.000000 -0.000000
vn -0.000000 1.000000 0.000000
vn -1.000000 -0.000000 -0.000000
vn 1.000000 0.000000 0.000000
vn 0.000000 -1.000000 -0.000000
vn -0.000000 1.000000 0.000000
vn -1.000000 -0.000000 -0.000000
vn 1.000000 0.000000 0.000000
vn 1.000000 0.000000 -0.000000
vn -1.000000 -0.000000 0.000000
vn 0.000000 -1.000000 -0.000000
vn 0.000000 0.000000 1.000000
vn 0.000000 -0.000000 -1.000000
vn -0.000000 1.000000 -0.000000
vn 0.000000 0.000000 1.000000
vn -0.000000 -1.000000 0.000000
vn 0.000000 0.000000 1.000000
vn 0.000000 -1.000000 0.000000
usemtl m_fc2509b8-da8a-e2ea-78be-2c51c2cf7716
f 132/289/73 130/290/73 129/291/73 131/292/73
f 135/293/74 133/294/74 134/295/74 136/296/74
f 133/297/75 137/298/75 140/299/75 134/300/75
f 134/301/76 140/302/76 139/303/76 136/304/76
f 138/305/77 142/306/77 141/307/77 137/308/77
f 139/309/78 143/310/78 142/311/78 138/312/78
f 140/313/79 144/314/79 143/315/79 139/316/79
f 137/317/80 141/318/80 144/319/80 140/320/80
f 132/321/81 143/322/81 144/323/81 130/324/81
f 130/325/82 144/326/82 141/327/82 129/328/82
f 145/329/83 146/330/83 150/331/83 149/332/83
f 148/333/84 147/334/84 151/335/84 152/336/84
f 147/337/85 145/338/85 149/339/85 151/340/85
f 152/341/86 150/342/86 146/343/86 148/344/86
f 153/345/87 154/346/87 158/347/87 157/348/87
f 156/349/88 155/350/88 159/351/88 160/352/88
f 155/353/89 153/354/89 157/355/89 159/356/89
f 160/357/90 158/358/90 154/359/90 156/360/90
f 164/361/91 162/362/91 161/363/91 163/364/91
f 167/365/92 165/366/92 166/367/92 168/368/92
f 165/369/93 169/370/93 172/371/93 166/372/93
f 166/373/94 172/374/94 171/375/94 168/376/94
f 170/377/95 174/378/95 173/379/95 169/380/95
f 171/381/96 175/382/96 174/383/96 170/384/96
f 172/385/97 176/386/97 175/387/97 171/388/97
f 169/389/98 173/390/98 176/391/98 172/392/98
f 164/393/99 175/394/99 176/395/99 162/396/99
f 162/397/100 176/398/100 173/399/100 161/400/100
f 177/401/101 178/402/101 182/403/101 181/404/101
f 180/405/102 179/406/102 183/407/102 184/408/102
f 179/409/103 177/410/103 181/411/103 183/412/103
f 184/413/104 182/414/104 178/415/104 180/416/104
f 185/417/105 186/418/105 190/419/105 189/420/105
f 188/421/106 187/422/106 191/423/106 192/424/106
f 187/425/107 185/426/107 189/427/107 191/428/107
f 192/429/108 190/430/108 186/431/108 188/432/108
f 193/433/109 194/434/109 198/435/109 197/436/109
f 196/437/110 195/438/110 199/439/110 200/440/110
f 195/441/111 193/442/111 197/443/111 199/444/111
f 200/445/112 198/446/112 194/447/112 196/448/112
f 201/449/113 202/450/113 206/451/113 205/452/113
f 204/453/114 203/454/114 207/455/114 208/456/114
f 203/457/115 201/458/115 205/459/115 207/460/115
f 208/461/116 206/462/116 202/463/116 204/464/116
f 212/465/117 210/466/117 209/467/117 211/468/117
f 215/469/118 213/470/118 214/471/118 216/472/118
f 213/473/119 217/474/119 220/475/119 214/476/119
f 214/477/120 220/478/120 219/479/120 216/480/120
f 218/481/121 222/482/121 221/483/121 217/484/121
f 219/485/122 223/486/122 222/487/122 218/488/122
f 220/489/123 224/490/123 223/491/123 219/492/123
f 217/493/124 221/494/124 224/495/124 220/496/124
f 212/497/125 223/498/125 224/499/125 210/500/125
f 210/501/126 224/502/126 221/503/126 209/504/126
f 225/505/127 226/506/127 230/507/127 229/508/127
f 228/509/128 227/510/128 231/511/128 232/512/128
f 227/513/129 225/514/129 229/515/129 231/516/129
f 232/517/130 230/518/130 226/519/130 228/520/130
f 233/521/131 234/522/131 238/523/131 237/524/131
f 236/525/132 235/526/132 239/527/132 240/528/132
f 235/529/133 233/530/133 237/531/133 239/532/133
f 240/533/134 238/534/134 234/535/134 236/536/134
f 244/537/135 242/538/135 241/539/135 243/540/135
f 247/541/136 245/542/136 246/543/136 248/544/136
f 245/545/137 249/546/137 252/547/137 246/548/137
f 246/549/138 252/550/138 251/551/138 248/552/138
f 250/553/139 254/554/139 253/555/139 249/556/139
f 251/557/140 255/558/140 254/559/140 250/560/140
f 252/561/141 256/562/141 255/563/141 251/564/141
f 249/565/142 253/566/142 256/567/142 252/568/142
f 244/569/143 255/570/143 256/571/143 242/572/143
f 242/573/144 256/574/144 253/575/144 241/576/144
o glass
v 0.250000 0.625000 0.250000
v 0.250000 0.625000 -0.250000
v 0.250000 0.125000 0.250000
v 0.250000 0.125000 -0.250000
v 0.250000 0.625000 0.250000
v 0.250000 0.625000 -0.250000
v 0.250000 0.125000 0.250000
v 0.250000 0.125000 -0.250000
v -0.250000 0.625000 0.250000
v -0.250000 0.625000 -0.250000
v -0.250000 0.125000 0.250000
v -0.250000 0.125000 -0.250000
v 0.250000 0.625000 0.250000
v 0.250000 0.125000 0.250000
v 0.250000 0.625000 0.250000
v 0.250000 0.125000 0.250000
v 0.250000 0.625000 -0.250000
v 0.250000 0.125000 -0.250000
v 0.250000 0.625000 -0.250000
v 0.250000 0.125000 -0.250000
v 0.250000 0.125000 0.250000
v 0.250000 0.125000 -0.250000
v 0.250000 0.125000 0.250000
v 0.250000 0.125000 -0.250000
vt 1.000000 1.000000
vt 0.000000 1.000000
vt 0.000000 0.000000
vt 1.000000 0.000000
vt 0.000000 0.500000
vt 0.000000 1.000000
vt 0.000000 0.500000
vt 0.000000 1.000000
vt 0.000000 0.500000
vt 0.000000 0.500000
vt 0.000000 1.000000
vt 0.000000 1.000000
vt 0.000000 1.000000
vt 0.000000 1.000000
vt 0.000000 1.000000
vt 0.000000 1.000000
vt 0.000000 1.000000
vt 0.000000 1.000000
vt 0.000000 1.000000
vt 0.000000 1.000000
vt 1.000000 0.000000
vt 1.000000 1.000000
vt 0.000000 1.000000
vt 0.000000 0.000000
vt 1.000000 1.000000
vt 0.000000 1.000000
vt 0.000000 0.000000
vt 1.000000 0.000000
vt 0.000000 1.000000
vt 0.500000 1.000000
vt 0.500000 1.000000
vt 0.500000 1.000000
vt 0.000000 1.000000
vt 0.500000 1.000000
vt 0.000000 1.000000
vt 0.000000 1.000000
vt 0.000000 1.000000
vt 0.000000 1.000000
vt 1.000000 0.000000
vt 1.000000 1.000000
vt 0.000000 1.000000
vt 0.000000 0.000000
vt 0.000000 1.000000
vt 0.500000 1.000000
vt 0.500000 1.000000
vt 0.500000 1.000000
vt 0.000000 1.000000
vt 0.500000 1.000000
vt 0.000000 1.000000
vt 0.000000 1.000000
vt 0.000000 1.000000
vt 0.000000 1.000000
vt 0.000000 1.000000
vt 0.000000 0.000000
vt 1.000000 0.000000
vt 1.000000 1.000000
vt 0.000000 -1.000000
vt 0.500000 -1.000000
vt 0.500000 -0.500000
vt 0.000000 -0.500000
vt 0.000000 1.000000
vt 0.500000 1.000000
vt 0.500000 1.000000
vt 0.500000 1.000000
vt 0.000000 1.000000
vt 0.500000 1.000000
vt 0.000000 0.500000
vt 0.000000 0.500000
vt 0.000000 1.000000
vt 0.000000 1.000000
vn 1.000000 0.000000 0.000000
vn 0.000000 0.000000 0.000000
vn 0.000000 0.000000 0.000000
vn 0.000000 0.000000 0.000000
vn 0.000000 0.000000 0.000000
vn -1.000000 0.000000 0.000000
vn 0.000000 0.000000 1.000000
vn 0.000000 -1.000000 0.000000
vn 0.000000 1.000000 0.000000
vn -1.000000 0.000000 0.000000
vn -0.000000 0.000000 -1.000000
vn 0.000000 0.000000 0.000000
vn 0.000000 0.000000 0.000000
vn 0.000000 0.000000 0.000000
vn 0.000000 -1.000000 0.000000
vn -0.000000 1.000000 0.000000
vn 0.000000 0.000000 0.000000
vn 0.000000 0.000000 0.000000
vn 0.000000 0.000000 0.000000
usemtl m_1366ca28-ccb6-8bed-c24f-657ebfcba713
f 262/577/145 261/578/145 263/579/145 264/580/145
f 267/597/150 265/598/150 266/599/150 268/600/150
f 271/601/151 265/602/151 267/603/151 272/604/151
f 268/615/155 266/616/155 275/617/155 276/618/155
f 277/629/159 267/630/159 268/631/159 278/632/159
